HIERARCHY
ROOT HipCenter
{
    OFFSET 0.0 0.0 -0.0
    CHANNELS 6 Xposition Yposition Zposition Zrotation Xrotation Yrotation
    JOINT Spine
    {
        OFFSET 0.0 0.12093855440616608 0.0
        CHANNELS 3 Zrotation Xrotation Yrotation
        JOINT ShoulderCenter
        {
            OFFSET 0.0 0.3338455855846405 0.0
            CHANNELS 3 Zrotation Xrotation Yrotation
            JOINT LeftShoulder
            {
                OFFSET 0.19127574563026428 0.0 0.0
                CHANNELS 3 Zrotation Xrotation Yrotation
                JOINT LeftElbow
                {
                    OFFSET 0.29749929904937744 0.0 0.0
                    CHANNELS 3 Zrotation Xrotation Yrotation
                    JOINT LeftWrist
                    {
                        OFFSET 0.29608583450317383 0.0 0.0
                        CHANNELS 3 Zrotation Xrotation Yrotation
                        JOINT LeftHand
                        {
                            OFFSET 0.04401729255914688 0.0 0.0
                            CHANNELS 3 Zrotation Xrotation Yrotation
                            End Site
                            {
                                OFFSET 0.017606915906071663 0.0 0.0
                            }
                        }
                    }
                }
            }
            JOINT RightShoulder
            {
                OFFSET -0.19127574563026428 0.0 0.0
                CHANNELS 3 Zrotation Xrotation Yrotation
                JOINT RightElbow
                {
                    OFFSET -0.29749929904937744 0.0 0.0
                    CHANNELS 3 Zrotation Xrotation Yrotation
                    JOINT RightWrist
                    {
                        OFFSET -0.29608583450317383 0.0 0.0
                        CHANNELS 3 Zrotation Xrotation Yrotation
                        JOINT RightHand
                        {
                            OFFSET -0.04401729255914688 0.0 0.0
                            CHANNELS 3 Zrotation Xrotation Yrotation
                            End Site
                            {
                                OFFSET -0.017606915906071663 0.0 0.0
                            }
                        }
                    }
                }
            }
            End Site
            {
                OFFSET 0.0 0.13353824615478516 0.0
            }
        }
    }
    JOINT LeftHip
    {
        OFFSET 0.13976645469665527 0.0 0.0
        CHANNELS 3 Zrotation Xrotation Yrotation
        JOINT LeftKnee
        {
            OFFSET 0.0 -0.40649038553237915 0.0
            CHANNELS 3 Zrotation Xrotation Yrotation
            JOINT LeftAnkle
            {
                OFFSET 0.0 -0.4477466940879822 0.0
                CHANNELS 3 Zrotation Xrotation Yrotation
                JOINT LeftFoot
                {
                    OFFSET 0.0 -0.1007077619433403 0.0
                    CHANNELS 3 Zrotation Xrotation Yrotation
                    End Site
                    {
                        OFFSET 0.0 0.0 0.04028310999274254
                    }
                }
            }
        }
    }
    JOINT RightHip
    {
        OFFSET -0.13976645469665527 0.0 0.0
        CHANNELS 3 Zrotation Xrotation Yrotation
        JOINT RightKnee
        {
            OFFSET 0.0 -0.40649038553237915 0.0
            CHANNELS 3 Zrotation Xrotation Yrotation
            JOINT RightAnkle
            {
                OFFSET 0.0 -0.4477466940879822 0.0
                CHANNELS 3 Zrotation Xrotation Yrotation
                JOINT RightFoot
                {
                    OFFSET 0.0 -0.1007077619433403 0.0
                    CHANNELS 3 Zrotation Xrotation Yrotation
                    End Site
                    {
                        OFFSET 0.0 0.0 0.04028310999274254
                    }
                }
            }
        }
    }
}
MOTION
Frames: 8
Frame Time: 0.03333333333333333
0.5720000267028809 0.21299999952316284 -0.9940000176429749 -6.251736719476082e-10 -5.663718304471299 -1.7848790039824785 -1.7612976101757425 -10.334926224658975 -0.0033897506529318743 -2.898761298482277e-07 1.0334178194376925e-06 3.0728834993593326 114.63008183790805 43.5764541528476 -61.397956779325824 -4.335608777035047e-07 -5.198561718644432e-06 19.21982062036466 -1.7831257478317218e-06 -4.435002109926317 27.805946621714057 0.0 3.1805546814635168e-15 0.0 -97.95196285243023 48.47712356550148 53.926248678594604 -3.641221074555073e-07 -4.124153747939943e-06 -17.277639027217393 -1.8974127112709608e-05 -89.25886931076062 -27.4075042136808 0.0 6.3611093629270335e-15 0.0 3.5570181822614346 17.189228583899013 -49.737817634767794 -2.4306310050823647 2.170114809197411 -2.0257377185057868 99.3687358327249 -47.725045597624195 150.30543308852037 -3.1805546814635168e-15 1.5902773407317582e-15 6.3611093629270335e-15 -2.683177865933763 18.306742882976184 46.312981424262844 0.4728861952565588 0.4405396417802075 0.38917966877866855 -102.27149678458153 -43.22134174330683 -153.31918876899317 3.1805546814635168e-15 1.5902773407317584e-15 3.1805546814635168e-15
0.5720000267028809 0.21199999749660492 -0.9890000224113464 1.9916257147594647e-09 -5.71060509725859 -1.4054822511006022 -1.8408774200861127 -9.946951095979163 -0.021377170385210365 7.508999816412007e-08 2.143055102745265e-09 2.8824532636812705 115.76623717116726 43.63707343929263 -62.20358207642732 1.0390789372181543e-06 3.618428675992721e-07 19.387334249234176 -4.588235729786724e-06 -5.0229256789731735 28.70708053151998 -8.827812596100317e-32 3.1805546814635168e-15 3.1805546814635168e-15 -96.79121077987128 47.26703257231586 53.100332562346416 -1.2506051822983137e-06 -8.107461869975815e-06 -17.39732261707509 -7.350091682459613e-05 -87.5606032155206 -27.803710078828075 0.0 0.0 -3.1805546814635168e-15 3.6738335607034167 17.21208799473547 -50.334694856519945 -2.934994398382239 2.568680496214575 -2.413359721660947 102.30209969734142 -47.878878174430824 152.97883296818867 3.1805546814635176e-15 -7.951386703658793e-15 3.1805546814635176e-15 -2.414635197611028 18.514316786298167 45.97155010196859 0.6458486983443781 0.8251948875977113 0.7261253105187164 -104.36236977065323 -42.483659486051536 -155.26837796422336 -3.1805546814635164e-15 -1.5902773407317584e-15 3.1805546814635164e-15
0.5720000267028809 0.20999999344348907 -0.9829999804496765 -4.087693465585324e-09 -5.237492813806511 -1.7977895092743432 -1.7609416197662358 -10.22133393572129 -0.005654087529456867 -1.5206722641616466e-07 -5.377358704722505e-07 3.3466013593618547 114.64228835043325 42.46690062113713 -61.530773047825754 9.373320831882116e-07 5.0275944634095395e-06 19.394669940468276 -4.668986285136184e-06 -2.6789083299751653 28.244739426951043 6.3611093629270335e-15 -3.1805546814635168e-15 1.7655625192200634e-31 -98.0936376167444 47.45523289010765 53.82405584767385 7.642846778822399e-07 2.907453449982077e-06 -17.0502575221004 0.00013141932443020348 -87.80201116334374 -28.59639089367122 6.361109362927032e-15 6.361109362927032e-15 -3.531125038440127e-31 3.262590550466878 16.898446703701502 -49.22224637517406 -3.1152900684665066 3.136824135169509 -2.8811853331981285 104.22302395135253 -48.46504227403258 153.8595735065925 0.0 0.0 -6.361109362927032e-15 -2.5240766608599627 18.024922281373602 45.97611024057873 1.0958348279561854 1.3087353432930422 1.143547863538739 -106.127180130815 -42.737054647284346 -156.4314953223502 -3.180554681463516e-15 -1.590277340731758e-15 -4.4139062980501586e-32
0.5720000267028809 0.20800000429153442 -0.9769999980926514 8.942484300742704e-09 -4.763637070739873 -1.812024642145928 -1.9323081504755502 -10.160264382134837 -0.03848283371961978 -3.6357071860067376e-07 4.543049700439651e-07 3.694562500059352 116.17339150298712 42.8308131025178 -62.18400312209815 -6.257136529954326e-07 -8.01370757074046e-07 19.184043395868326 -5.762614598054957e-07 -3.7744797026631263 27.957963623475806 0.0 0.0 0.0 -96.17999723271987 46.07349223995549 52.458004851957206 -3.38679191817013e-06 -8.980744367871947e-07 -16.87278973948734 -4.252646034609087e-06 -87.42444729237654 -27.745998716720287 0.0 0.0 0.0 3.115549037233138 16.56146410783093 -49.11616560282164 -3.5260787823431703 3.674262070479136 -3.302294924360249 105.45472099163776 -48.47815554655553 154.3694717218547 0.0 0.0 0.0 -2.3747622607205447 17.86509282094552 46.04409626137088 1.2409663485281983 1.6570564317117034 1.4244906558370651 -107.61766025852398 -42.081937240447026 -157.5072691850541 -3.1805546814635164e-15 -7.95138670365879e-15 -2.2069531490250793e-31
0.5720000267028809 0.2070000022649765 -0.968999981880188 3.9600162316061825e-10 -4.289155173599201 -1.4378011418742982 -1.9990885291669778 -10.082832994717572 -0.05756083181648276 2.9529003573540372e-08 2.0028250486541533e-07 3.253818632054705 117.04502292420322 43.24542660309562 -62.86897443993205 -3.716867512026069e-06 -5.265614116725265e-07 19.324837308303344 1.5669514992817407e-06 -2.3446361238326543 26.811228438314565 0.0 3.1805546814635168e-15 0.0 -96.43541776287324 45.49624140056127 52.623842551511316 -2.609450532806664e-06 -9.094808014017441e-06 -16.787739075356523 2.510972798423672e-05 -86.49564930349477 -28.55267838695035 -1.9862578341225716e-31 -7.156248033292914e-15 -3.1805546814635168e-15 3.2361345244396387 16.233060199889447 -48.96645678977279 -3.8589943239148963 4.007057451768341 -3.6444527709146555 107.50805091242141 -48.93792107782137 156.24627842734395 0.0 7.951386703658792e-15 0.0 -2.2585601292811637 17.99088125058296 45.73830413795934 1.12875856288697 1.3495573401155043 1.169424557471725 -108.04847017533547 -42.19668473920443 -157.9832673151106 3.1805546814635168e-15 -6.361109362927033e-15 6.361109362927033e-15
0.5730000138282776 0.20600000023841858 -0.9610000252723694 0.4774475731212746 -3.33834060040893 -1.437890009056089 -2.465907566265484 -10.342187210959075 -0.061614943257285185 -4.7181032058626354e-09 -2.1256715687071243e-07 3.5156994445127587 118.12477213092816 43.57898586554746 -63.70824595819399 -3.2582069974363192e-06 9.230480499338424e-07 19.570432521953393 3.3091026011876777e-06 -3.374054174607274 27.979377119204734 -6.361109362927032e-15 1.7655625192200634e-31 -3.180554681463516e-15 -95.92183035244516 44.910066370044085 52.1467253607472 1.950201116831978e-06 -9.766967645998283e-06 -16.46518443534148 1.6113149933703287e-05 -82.09745035821813 -28.467892478642423 6.361109362927035e-15 0.0 0.0 2.6137088075385995 15.713229243081637 -48.76931488045523 -3.813152954756484 3.9950004020043464 -3.651732885494128 107.20605503913767 -49.07573453083314 156.06724015538694 1.2722218725854064e-14 -1.5902773407317584e-15 -3.180554681463516e-15 -2.725807788896907 17.475153357107356 45.75030786812157 1.096430104948457 1.50123897571788 1.3116521574888216 -108.88450288920812 -42.428258336563694 -158.7334261583259 0.0 0.0 0.0
0.5730000138282776 0.20499999821186066 -0.9520000219345093 -2.3799904910532583e-09 -2.838779476933793 -1.4796156376206064 -1.8320271101927024 -9.827278118248257 -0.03390442122118178 1.9004969859238022e-07 -4.4721901812838207e-07 3.7981302840572293 117.52173492506074 43.262737529228644 -63.26960928757661 3.200439332063238e-06 1.2673007474097727e-06 19.61440351605895 3.2760252775146227e-06 -1.3516103329610458 28.58514529893878 6.361109362927033e-15 3.1805546814635168e-15 3.180554681463516e-15 -95.92156329641661 44.55488033583812 51.93750700648931 2.3391896049474893e-06 -3.092973923947741e-06 -16.29410282456738 4.6989279599496075e-07 -81.46404947334852 -27.32406499436289 -6.361109362927035e-15 0.0 0.0 3.081816078259863 15.638111643463816 -48.25547946953046 -3.7657557692451933 4.023754433972978 -3.71643585648866 107.05773797384184 -49.51626632137149 156.05157894201173 -1.2722218725854067e-14 1.5902773407317588e-15 -3.1805546814635168e-15 -2.2472469922588236 17.39967175890705 45.24695950047934 1.0789225413789096 1.5121220042260688 1.3329171364944268 -108.84838274182795 -42.9310769471594 -158.71766091920782 0.0 0.0 -3.1805546814635168e-15
0.5740000009536743 0.20499999821186066 -0.9440000057220459 0.47350193675696817 -0.9469069422517988 -1.1435150293457388 -2.349908600128189 -10.472723128807814 -0.05240490463713097 -1.1610832734570816e-07 -5.001730594091121e-07 3.478555582222617 118.68534794867271 43.882299303710916 -63.75847589775762 9.11629842225929e-08 -9.229976492861703e-06 19.425589482214935 -3.3097172964627243e-06 0.8515871883306299 25.749389840275825 1.2722218725854067e-14 3.531125038440127e-31 3.1805546814635168e-15 -95.67057789048876 43.93657849506393 51.78537233202263 -3.9834517772640703e-07 -3.10545672805308e-06 -16.31681345946671 -2.0638460309819664e-05 -84.45739178735741 -27.874784415350682 0.0 0.0 -3.1805546814635168e-15 2.702309433104473 14.131603252873795 -48.57601245132853 -3.6916656773305494 3.9721380238735375 -3.765942169688473 105.5325171832024 -49.01464788840071 155.55065008772118 6.361109362927033e-15 1.7655625192200634e-31 3.1805546814635164e-15 -2.732667181495596 16.266388028414035 45.2036032481064 0.6703508229311543 0.8562012674173936 0.7683708669151775 -106.55254230220444 -43.04801794690462 -157.2643814960323 -3.180554681463516e-15 6.361109362927033e-15 -3.180554681463516e-15
